<svg xmlns="http://www.w3.org/2000/svg" viewBox="0 0 157.71 118.39">
    <g>
        <g>
            <g>
                <g>
                    <path
                          d="M141.41,118.39H16.58A16.44,16.44,0,0,1,0,102.09V16.44A16.44,16.44,0,0,1,16.44,0H141.28a16.44,16.44,0,0,1,16.43,16.44V102A16.44,16.44,0,0,1,141.41,118.39ZM16.44,6.94a9.91,9.91,0,0,0-9.5,9.5V102a9.91,9.91,0,0,0,9.84,9.85H141.62a9.92,9.92,0,0,0,9.85-9.85V16.44a9.91,9.91,0,0,0-10.06-9.5Z"/>
                </g>
            </g>
            <path
                  d="M80.1,64.77a24.13,24.13,0,1,1,24.12-24.12A24.15,24.15,0,0,1,80.1,64.77Zm0-43.55A19.43,19.43,0,1,0,99.52,40.65,19.45,19.45,0,0,0,80.1,21.22Z"/>
            <circle cx="128.65" cy="67" r="4.66"/>
            <circle cx="31.4" cy="26.97" r="4.66"/>
            <path d="M36.52,82.33H50v4H41.13v2.55H49.2v3.67H41.13v2.67h9v4H36.52Z"/>
            <path
                  d="M51.29,97.51,53,94.75a8.46,8.46,0,0,0,4.46,1.48c.8,0,1.16-.24,1.16-.69v-.05c0-.5-.72-.72-2.09-1.1-2.57-.68-4.61-1.54-4.61-4.16v0c0-2.76,2.21-4.29,5.21-4.29a10.14,10.14,0,0,1,5.35,1.51l-1.56,2.88a8.82,8.82,0,0,0-3.84-1.2c-.7,0-1.06.26-1.06.62v0c0,.51.75.75,2.12,1.15,2.57.72,4.61,1.61,4.61,4.13v0c0,2.86-2.14,4.35-5.31,4.35A10.54,10.54,0,0,1,51.29,97.51Z"/>
            <path
                  d="M64.63,86.15h4.56v1.73a4.77,4.77,0,0,1,3.94-2c3.09,0,5.76,2.57,5.76,6.72v0c0,4.23-2.67,6.8-5.74,6.8a4.88,4.88,0,0,1-4-1.87V103H64.63Zm9.77,6.51v0a2.67,2.67,0,1,0-5.31,0v0a2.67,2.67,0,1,0,5.31,0Z"/>
            <path
                  d="M80.34,92.71v0a6.51,6.51,0,0,1,6.55-6.8c4.49,0,6.56,3.29,6.56,7.11,0,.29,0,.62,0,.94H84.73A2.68,2.68,0,0,0,87.54,96a3.92,3.92,0,0,0,2.88-1.32l2.52,2.09a6.79,6.79,0,0,1-5.64,2.64C83.22,99.45,80.34,96.74,80.34,92.71ZM82,81.88l4.23-1.37,2.47,4.42H85.52Zm7.18,9.7c-.17-1.44-1-2.36-2.25-2.36s-2,.94-2.26,2.36Z"/>
            <path
                  d="M94.89,92.71v0a6.75,6.75,0,0,1,7-6.77,6.14,6.14,0,0,1,5.54,2.9l-3.09,2.31a2.8,2.8,0,0,0-2.43-1.37,2.69,2.69,0,0,0-2.54,2.88v0a2.69,2.69,0,0,0,2.59,3,3.12,3.12,0,0,0,2.5-1.34l3,2.21a6.46,6.46,0,0,1-5.79,3A6.71,6.71,0,0,1,94.89,92.71Z"/>
            <path
                  d="M108.2,92.71v0a6.52,6.52,0,0,1,6.56-6.8c4.49,0,6.55,3.29,6.55,7.11,0,.29,0,.62,0,.94H112.6A2.68,2.68,0,0,0,115.41,96a3.93,3.93,0,0,0,2.88-1.32l2.52,2.09a6.79,6.79,0,0,1-5.64,2.64C111.08,99.45,108.2,96.74,108.2,92.71ZM117,91.58c-.17-1.44-1-2.36-2.26-2.36s-2,.94-2.25,2.36Z"/>
        </g>
    </g>
</svg>
