<svg xmlns="http://www.w3.org/2000/svg" viewBox="0 0 18.36 12.56">
    <g id="Calque_2" data-name="Calque 2">
        <g id="Calque_1-2" data-name="Calque 1">
            <path
                  d="M18.29,10a.62.62,0,0,0-.55-.34h-.35a8.38,8.38,0,0,0-6.77-7.89c0-.06,0-.11,0-.16a1.61,1.61,0,0,0-3.22,0s0,.1,0,.16A8.38,8.38,0,0,0,.65,9.66h0A.62.62,0,0,0,.07,10a.61.61,0,0,0,0,.65l.72,1a2.17,2.17,0,0,0,1.75.89H15.77a2.17,2.17,0,0,0,1.75-.89l.72-1A.61.61,0,0,0,18.29,10ZM8.05,1.67V1.61a1,1,0,0,1,1.94,0s0,0,0,.06h0l-.34,0H8.43l-.33,0Zm-.19.67.52-.06h.11a6.25,6.25,0,0,1,1.06,0h.11l.52.06a7.74,7.74,0,0,1,6.56,7.32H1.29A7.76,7.76,0,0,1,7.86,2.34Zm9.13,9a1.5,1.5,0,0,1-1.22.63H2.59a1.5,1.5,0,0,1-1.22-.63l-.7-1h17Z"/>
        </g>
    </g>
</svg>
