<svg xmlns="http://www.w3.org/2000/svg" viewBox="0 0 268.23 116.74">
    <g>
        <g>
            <g>
                <g>
                    <path
                          d="M46.68,72.68a24.86,24.86,0,1,1,24.61-25.1v.5A24.85,24.85,0,0,1,46.68,72.68Zm0-44A19.18,19.18,0,1,0,65.61,48.11v0A19.22,19.22,0,0,0,46.68,28.69Z"/>
                    <ellipse cx="46.48" cy="80.28" rx="22.02" ry="3.09"/>
                    <path
                          d="M86.25,45.9a2.18,2.18,0,0,1-2,1.84c-1.21,0-2-.88-1.55-2.38l4.18-15.54H82.15a1.76,1.76,0,0,1,0-3.47H96.23a1.76,1.76,0,0,1,0,3.47H90.59Z"/>
                    <path
                          d="M99.49,45.9a2.22,2.22,0,0,1-2.09,1.84c-1.21,0-1.88-.88-1.46-2.38L99.2,33.25a2.16,2.16,0,0,1,2-1.88c1.26,0,1.88.87,1.46,2.38Zm2.8-16.71c-1.21,0-2.05-.75-1.8-1.75v-.33a2.31,2.31,0,0,1,2.38-1.72c1.21,0,2,.75,1.8,1.72v.37a2.35,2.35,0,0,1-2.38,1.8Z"/>
                    <path
                          d="M112.35,48.08a6.94,6.94,0,0,1-7.18-6.67q0-.3,0-.6a9.64,9.64,0,0,1,9.27-9.44A6.93,6.93,0,0,1,120,33.71a2.17,2.17,0,0,1,.67,1.46,1.73,1.73,0,0,1-1.76,1.67h0a1.44,1.44,0,0,1-1.25-.54,4.18,4.18,0,0,0-3.51-1.76,6.14,6.14,0,0,0-5.47,6.39A3.76,3.76,0,0,0,112,45.09a3.85,3.85,0,0,0,.48,0,5.23,5.23,0,0,0,3.34-1.25,2,2,0,0,1,1.13-.42,1.54,1.54,0,0,1,1.5,1.54,1.72,1.72,0,0,1-.58,1.26A8.43,8.43,0,0,1,112.35,48.08Z"/>
                    <path
                          d="M126.93,38.63l8.36-6.55a2.22,2.22,0,0,1,1.5-.71,1.41,1.41,0,0,1,1.5,1.33.57.57,0,0,1,0,.13,1.57,1.57,0,0,1-.67,1.29l-5.56,4.18,3,6.43a3.29,3.29,0,0,1,.33,1.3,1.74,1.74,0,0,1-1.87,1.63h0a1.93,1.93,0,0,1-1.88-1.3l-2.71-5.8L125.72,43,125,45.82a2.18,2.18,0,0,1-2,1.84c-1.21,0-1.88-.88-1.46-2.38l4.89-18.09a2.18,2.18,0,0,1,2.05-1.8c1.21,0,1.88.88,1.46,2.34Z"/>
                    <path
                          d="M149.62,43.9a2.79,2.79,0,0,1,1.17-.38,1.35,1.35,0,0,1,1.38,1.29v.13a1.41,1.41,0,0,1-.72,1.26A9.06,9.06,0,0,1,146,47.87,6.68,6.68,0,0,1,138.63,42a6.11,6.11,0,0,1,0-1,9.72,9.72,0,0,1,9.61-9.56,5.93,5.93,0,0,1,6.38,5.44,6.77,6.77,0,0,1,0,.78,12.78,12.78,0,0,1,0,1.75A1.79,1.79,0,0,1,152.75,41H142.26v.3a3.77,3.77,0,0,0,3.7,3.82,3.85,3.85,0,0,0,.48,0A5.56,5.56,0,0,0,149.62,43.9Zm1.5-5.47a3.57,3.57,0,0,0,0-1.13,2.89,2.89,0,0,0-2.69-3.07,3.17,3.17,0,0,0-.53,0,5.72,5.72,0,0,0-5.26,4.18Z"/>
                    <path
                          d="M161.61,28.86a2.15,2.15,0,0,1,2-1.67c1.21,0,1.88.88,1.47,2.38l-.59,2.17H167a1.54,1.54,0,0,1,1.55,1.55v0a1.51,1.51,0,0,1-1.46,1.55h-3.43l-2,7.77a6.32,6.32,0,0,0,0,.87c0,.84.58,1.26,1.54,1.26h.5a1.25,1.25,0,0,1,1.45,1,1.62,1.62,0,0,1,0,.31,1.56,1.56,0,0,1-1,1.55,6.08,6.08,0,0,1-2.46.42c-2.63,0-4.18-1.3-4.18-3.18a7.16,7.16,0,0,1,.25-1.84l2.17-8.14h-.41a1.59,1.59,0,0,1,0-3.14h1.12Z"/>
                    <path
                          d="M81.57,73.14a2.23,2.23,0,0,1-2.09,1.8c-1.21,0-1.92-.88-1.51-2.38l4.56-17.13a2.29,2.29,0,0,1,2.13-1.88h6.1a8.36,8.36,0,0,1,6.43,2.09,5.53,5.53,0,0,1,1.55,4.17,6.69,6.69,0,0,1-1.93,4.47,9.85,9.85,0,0,1-5.09,2.51l3,5A2.06,2.06,0,0,1,95.14,73a1.75,1.75,0,0,1-1.79,1.71h0a2.3,2.3,0,0,1-2.13-1.21l-3.63-6.35H83.11Zm7.22-9.06a6.93,6.93,0,0,0,5-1.59,3.58,3.58,0,0,0,1-2.55,2.74,2.74,0,0,0-.75-2,5,5,0,0,0-3.55-1H85.91L84,64.08Z"/>
                    <path
                          d="M110.89,71a3.22,3.22,0,0,1,1.17-.38A1.38,1.38,0,0,1,113.44,72v.08a1.43,1.43,0,0,1-.67,1.22,9,9,0,0,1-5.43,1.67,6.64,6.64,0,0,1-7.25-6,7.2,7.2,0,0,1,0-1,9.7,9.7,0,0,1,9.28-9.69,5.93,5.93,0,0,1,6.38,5.44,6.77,6.77,0,0,1,0,.78,12.92,12.92,0,0,1,0,1.76c-.25,1.08-.8,1.63-1.8,1.63H103.58v.33A3.73,3.73,0,0,0,107.23,72a4.71,4.71,0,0,0,.53,0A5.53,5.53,0,0,0,110.89,71Zm1.34-5.56a2.69,2.69,0,0,0,0-1.13,2.88,2.88,0,0,0-2.71-3h-.17a5.66,5.66,0,0,0-5.27,4.18Z"/>
                    <path
                          d="M126.35,70.17c0-.79-.71-1.33-2.34-2-2.67-1.09-4.6-2.13-4.6-4.6a5.6,5.6,0,0,1,5.81-5.38l.46,0a10.08,10.08,0,0,1,5.18,1.54,1.6,1.6,0,0,1,.6,2.17,1.62,1.62,0,0,1-1.31.8,1.88,1.88,0,0,1-1-.34,6.26,6.26,0,0,0-3.72-1.29c-1.59,0-2.47.79-2.47,1.84s.71,1.33,2.55,2.09,4.39,2.13,4.39,4.47A5.68,5.68,0,0,1,124,75l-.51,0a10.19,10.19,0,0,1-6.18-2.09,1.48,1.48,0,0,1-.67-1.3,1.53,1.53,0,0,1,1.5-1.58h0a1.85,1.85,0,0,1,1,.41,7.12,7.12,0,0,0,4.59,1.67C125.22,72.05,126.35,71.34,126.35,70.17Z"/>
                    <path
                          d="M137.71,55.85a2.18,2.18,0,0,1,2-1.84c1.21,0,1.88.88,1.5,2.38l-.62,2.17h2.46a1.59,1.59,0,1,1,0,3.18h-3.3l-2.09,7.72a7.06,7.06,0,0,0,0,.92c0,.8.54,1.21,1.55,1.21h.62a1.22,1.22,0,0,1,1.42,1,1.13,1.13,0,0,1,0,.41,1.45,1.45,0,0,1-1,1.51,5.9,5.9,0,0,1-2.46.41c-2.64,0-4.18-1.25-4.18-3.17a7.16,7.16,0,0,1,.25-1.84l2.17-8.1h-.42a1.59,1.59,0,0,1-1.25-1.63,1.55,1.55,0,0,1,1.5-1.59h1.17Z"/>
                    <path
                          d="M154.46,73.14V72.6A7,7,0,0,1,149.2,75a4.42,4.42,0,0,1-4.83-4c0-.07,0-.13,0-.2,0-3.67,3-5.8,7-5.8a17.44,17.44,0,0,1,5,.79v-.25a6,6,0,0,0,0-1.34c0-1.5-1-2.42-3.55-2.42a11.74,11.74,0,0,0-3.17.46H149a1.42,1.42,0,0,1-1-1.67,1.52,1.52,0,0,1,1.17-1.46,16,16,0,0,1,4.8-.76c4.18,0,6.39,1.84,6.39,5a8.86,8.86,0,0,1-.33,2.29l-1.92,7.48a2.23,2.23,0,0,1-2.09,1.8,1.38,1.38,0,0,1-1.6-1.12A1.42,1.42,0,0,1,154.46,73.14Zm1.3-4.55v-.75a13.15,13.15,0,0,0-3.89-.59c-2.25,0-3.88,1.17-3.88,3s1,2.13,2.63,2.13a5.35,5.35,0,0,0,5.14-3.93Z"/>
                    <path
                          d="M172.89,73.14v-.67A6.83,6.83,0,0,1,168,74.85a4.51,4.51,0,0,1-4.88-4.11,4.68,4.68,0,0,1,0-.65,12.66,12.66,0,0,1,.5-2.8l1.88-7.06a2.13,2.13,0,0,1,2.3-1.84c1.25,0,1.88.92,1.5,2.39l-1.79,6.68a7,7,0,0,0,0,1.59,2.42,2.42,0,0,0,2.27,2.56,2,2,0,0,0,.49,0,4.87,4.87,0,0,0,4.38-4.17l1.51-7.19a2.17,2.17,0,0,1,2-1.84c1.26,0,1.88.92,1.51,2.39l-3.1,12.36a2.26,2.26,0,0,1-2.13,1.8,1.46,1.46,0,0,1-1.65-1.24A1.32,1.32,0,0,1,172.89,73.14Z"/>
                    <path
                          d="M187.8,61.94a6.07,6.07,0,0,1,4.72-3.59,1.54,1.54,0,0,1,1.63,1.46,1.47,1.47,0,0,1,0,.21c0,1-.54,1.63-1.76,2A8.35,8.35,0,0,0,186,68.63l-1.17,4.18a2.16,2.16,0,0,1-2,1.79c-1.21,0-1.88-.87-1.51-2.34l3.22-12a2.14,2.14,0,0,1,2-1.84c1.21,0,1.83.92,1.54,2.18Z"/>
                    <path
                          d="M203,73.14V72.6a7,7,0,0,1-5.3,2.42,4.43,4.43,0,0,1-4.8-4,.76.76,0,0,0,0-.15c0-3.67,3-5.8,7-5.8a17.44,17.44,0,0,1,5,.79v-.25a6,6,0,0,0,0-1.34c0-1.5-1-2.42-3.55-2.42a11.45,11.45,0,0,0-3.13.46h-.63a1.42,1.42,0,0,1-1-1.67,1.49,1.49,0,0,1,1.13-1.46,16.21,16.21,0,0,1,4.84-.76c4.18,0,6.39,1.84,6.39,5a11.1,11.1,0,0,1-.33,2.29l-2,7.48a2.18,2.18,0,0,1-2.05,1.8,1.38,1.38,0,0,1-1.6-1.12A1.42,1.42,0,0,1,203,73.14Zm1.26-4.55v-.75a12.89,12.89,0,0,0-3.85-.59c-2.29,0-3.88,1.17-3.88,3s1,2.13,2.59,2.13a5.32,5.32,0,0,0,5.14-3.93Z"/>
                    <path
                          d="M218,60v.63a7,7,0,0,1,4.89-2.38,4.51,4.51,0,0,1,4.84,4.15,3.53,3.53,0,0,1,0,.65,11.08,11.08,0,0,1-.46,2.8l-2,7.31a2.18,2.18,0,0,1-2.05,1.8c-1.21,0-1.88-.88-1.46-2.34l1.76-6.69a5.9,5.9,0,0,0,.25-1.63c0-1.58-1-2.5-2.8-2.5A4.84,4.84,0,0,0,216.79,66l-2.17,7.18a2.14,2.14,0,0,1-2.05,1.8c-1.21,0-1.88-.88-1.46-2.34l3.22-12.16a2.21,2.21,0,0,1,2.08-1.84A1.51,1.51,0,0,1,218,60Z"/>
                    <path
                          d="M235.05,55.85a2.12,2.12,0,0,1,2-1.84c1.21,0,1.88.88,1.5,2.38l-.62,2.17h2.46a1.59,1.59,0,1,1,0,3.18h-3.3l-2,7.72a3.54,3.54,0,0,0,0,.92c0,.8.54,1.21,1.54,1.21h.63a1.21,1.21,0,0,1,1.41,1,1.14,1.14,0,0,1,0,.41,1.47,1.47,0,0,1-1,1.51,6,6,0,0,1-2.47.41c-2.63,0-4.18-1.25-4.18-3.17a5.77,5.77,0,0,1,.3-1.84l2.13-8.1H233a1.6,1.6,0,0,1,.12-3.18h1.17Z"/>
                </g>
            </g>
            <path
                  d="M250.19,116.74H18a18.05,18.05,0,0,1-18-18V18A18.06,18.06,0,0,1,18,0H250.19a18.06,18.06,0,0,1,18,18V98.71A18.06,18.06,0,0,1,250.19,116.74ZM18,7.21A10.84,10.84,0,0,0,7.21,18V98.71A10.84,10.84,0,0,0,18,109.53H250.19A10.84,10.84,0,0,0,261,98.71V18A10.84,10.84,0,0,0,250.19,7.21Z"/>
        </g>
    </g>
</svg>
