<svg xmlns="http://www.w3.org/2000/svg" viewBox="0 0 11.3 17.37">
    <g id="Calque_2" data-name="Calque 2">
        <g id="Calque_1-2" data-name="Calque 1">
            <path
                  d="M11.27,6.6A2.87,2.87,0,0,0,9.16,4l-.09,0,0-.09a3.28,3.28,0,0,0-6.42,0l0,.09L2.52,4a2.34,2.34,0,0,0-.5.19l-.17.08L.65,0,0,.19,1.28,4.66l-.06.06A2.86,2.86,0,0,0,.4,6.6v0a.38.38,0,0,0,0,.1V7.85a5.49,5.49,0,0,0,5,5.44H5.5v3.4H2.66v.67H9V16.7H6.17V13.3h.14a5.49,5.49,0,0,0,5-5.44V6.74a.44.44,0,0,0,0-.1Zm-.73-.38.05.18H6.19l0-.18a2.21,2.21,0,0,1,4.3,0ZM3.37,3.66a2.6,2.6,0,0,1,4.93,0l.06.19H8.17A2.92,2.92,0,0,0,6,5.18l-.12.19-.13-.19A2.9,2.9,0,0,0,3.5,3.86H3.31ZM1.13,6.22a2.21,2.21,0,0,1,4.3,0l.05.18H1.09Zm9.5,1.63a4.79,4.79,0,0,1-9.58,0V7.08h9.58Z"/>
        </g>
    </g>
</svg>
