<svg xmlns="http://www.w3.org/2000/svg" viewBox="0 0 157.71 118.39">
    <g>
        <g>
            <path
                  d="M34,89.41v0a8.12,8.12,0,0,1,8.34-8.22,7.73,7.73,0,0,1,6.7,3.29L45.76,87a4.26,4.26,0,0,0-3.46-1.86,3.91,3.91,0,0,0-3.77,4.18v.05c0,2.37,1.56,4.22,3.77,4.22a4.33,4.33,0,0,0,3.57-1.92L49.17,94a8,8,0,0,1-7,3.57A8,8,0,0,1,34,89.41Z"/>
            <path
                  d="M50.8,80.78h4.29v5.94a4.51,4.51,0,0,1,3.66-1.94c2.6,0,4.16,1.72,4.16,4.5v8H58.62V90.65c0-1.33-.7-2.05-1.72-2.05a1.81,1.81,0,0,0-1.81,2.05v6.62H50.8Z"/>
            <path
                  d="M64.63,91.22v0a6.13,6.13,0,0,1,6.17-6.39c4.22,0,6.16,3.1,6.16,6.69,0,.27,0,.59,0,.88H68.77a2.52,2.52,0,0,0,2.64,2,3.72,3.72,0,0,0,2.71-1.24l2.37,2a6.42,6.42,0,0,1-5.31,2.49C67.34,97.57,64.63,95,64.63,91.22ZM66.19,81l4-1.28,2.32,4.15h-3Zm6.75,9.13c-.15-1.36-.94-2.22-2.12-2.22s-1.9.89-2.12,2.22Z"/>
            <path
                  d="M87.5,95.65a4.55,4.55,0,0,1-3.73,1.89c-2.89,0-5.4-2.41-5.4-6.32v0c0-4,2.49-6.39,5.38-6.39a4.7,4.7,0,0,1,3.75,1.76V85.05h4.29v15.84H87.5Zm.06-4.48v0a2.51,2.51,0,1,0-5,0v0a2.51,2.51,0,1,0,5,0Z"/>
            <path
                  d="M94,93.05v-8H98.3v6.62c0,1.33.7,2.06,1.74,2.06a1.81,1.81,0,0,0,1.78-2.06V85.05h4.29V97.27h-4.29V95.6a4.49,4.49,0,0,1-3.66,1.94C95.57,97.54,94,95.83,94,93.05Z"/>
            <path
                  d="M107.93,91.22v0a6.13,6.13,0,0,1,6.16-6.39c4.23,0,6.17,3.1,6.17,6.69,0,.27,0,.59,0,.88h-8.18a2.52,2.52,0,0,0,2.64,2,3.71,3.71,0,0,0,2.71-1.24l2.38,2a6.42,6.42,0,0,1-5.31,2.49C110.64,97.57,107.93,95,107.93,91.22Zm8.31-1.06c-.16-1.36-.95-2.22-2.12-2.22s-1.9.89-2.13,2.22Z"/>
            <path
                d="M104.91,21.79l-3,3,3.78,3.75a1.35,1.35,0,0,1,0,2.26L68,68.53a2.57,2.57,0,0,1-.7.48c-2.79,1.23-5.58,2.46-8.38,3.66a2,2,0,0,1-1.18.11,1.21,1.21,0,0,1-.7-1.72q1.83-4.35,3.73-8.69a2.28,2.28,0,0,1,.52-.68L103.75,19.2a1.34,1.34,0,0,1,2.19,0c1.82,1.83,3.65,3.65,5.46,5.49a6.11,6.11,0,0,1-.24,8.62c-4.06,4-8.08,8.07-12.11,12.1a1.28,1.28,0,1,1-1.8-1.81q6-6,12.07-12.07a3.57,3.57,0,0,0,.7-4.47,3.4,3.4,0,0,0-.53-.67c-1.48-1.5-3-3-4.44-4.47ZM60.64,69.12l.54-.22c1.51-.66,3-1.31,4.53-2a2.58,2.58,0,0,0,.82-.57Q81.47,51.43,96.38,36.51a3.41,3.41,0,0,1,.4-.31l-3.26-3.33a3,3,0,0,1-.35.52C84.08,42.5,75,51.63,65.87,60.67a16.21,16.21,0,0,0-4.46,6.63C61.22,67.89,60.93,68.44,60.64,69.12ZM98.77,27.89l3.1,3.1,1.22-1.25L100,26.66Zm-.2,6.26,1.35-1.21-3.07-3.07-1.27,1.21Z"/>
            <g>
                <g>
                    <path
                          d="M141.41,118.39H16.58A16.44,16.44,0,0,1,0,102.09V16.44A16.44,16.44,0,0,1,16.44,0H141.28a16.44,16.44,0,0,1,16.43,16.44V102A16.44,16.44,0,0,1,141.41,118.39ZM16.44,6.94a9.91,9.91,0,0,0-9.5,9.5V102a9.91,9.91,0,0,0,9.84,9.85H141.62a9.92,9.92,0,0,0,9.85-9.85V16.44a9.91,9.91,0,0,0-10.06-9.5Z"/>
                </g>
            </g>
        </g>
    </g>
</svg>
