<svg xmlns="http://www.w3.org/2000/svg" viewBox="0 0 155.73 116.9">
    <g>
        <g>
            <g>
                <g>
                    <g>
                        <path
                              d="M111,48.85h-5.24l-.2-2.67H99.75a.73.73,0,0,0-.79.53c-.3.66-.59,1.32-.92,1.91a.79.79,0,0,1-.56.43H92.3l.29-.66c3.07-6.17,6.37-12.1,9.44-18a1,1,0,0,1,1.12-.72h5.71c.42,0,.62,0,.66.56.52,6,1.08,12.07,1.64,18.11A.81.81,0,0,0,111,48.85Zm-6-15.37-4,8.94h4.36Z"/>
                        <path
                              d="M70.92,29.89l-.46.79-9.9,17.61a1.05,1.05,0,0,1-1,.63H55.35c-.49,0-.63-.2-.69-.66q-.75-7-1.55-14a4.84,4.84,0,0,0-1-2.67,3.64,3.64,0,0,0-2.47-1.23.47.47,0,0,1-.5-.26c-.16-.26.3-.36.53-.36H57.4c.49,0,.59.23.59.66.26,3.82.5,7.65.76,11.54.23-.49.43-1,.69-1.48l5.87-10.23a.81.81,0,0,1,.66-.49h4.79Z"/>
                        <path
                              d="M108.13,60.83a91.48,91.48,0,0,0-56.67,5.64v-.23a3.56,3.56,0,0,1,.59-.43c3.3-1.49,6.6-3,9.9-4.36a90.45,90.45,0,0,1,22.69-6.3c3.76-.52,7.56-.76,11.35-.95a75.57,75.57,0,0,1,11.94.43c.53,0,.73.23.69.75A33.27,33.27,0,0,0,108.13,60.83Z"/>
                        <path
                              d="M76.46,47.2l2.44-3.76,1.59.89a7.82,7.82,0,0,0,4.32.93,3.27,3.27,0,0,0,1.32-.4,1.42,1.42,0,0,0,.64-1.9,1.47,1.47,0,0,0-.64-.64c-.69-.53-1.49-1-2.18-1.45s-1.43-1-2.11-1.55a5.31,5.31,0,0,1-.52-7.49,5.23,5.23,0,0,1,.72-.69,8.34,8.34,0,0,1,5.74-1.81,11.39,11.39,0,0,1,6.36,2l.23.17v.19L91.6,35l-1.45-1a4.57,4.57,0,0,0-3.53-.63,1.6,1.6,0,0,0-1.35,1.19A1.38,1.38,0,0,0,86,36.22c1,.69,2,1.29,3,2a13.41,13.41,0,0,1,2.41,2.35,4,4,0,0,1,.46,4.32,7.05,7.05,0,0,1-5.9,4.55,14.55,14.55,0,0,1-9-1.85Z"/>
                        <path
                              d="M27.11,71.28H39.58V75H32v3.47h7.62V82.2H31.87v3.3a1.71,1.71,0,0,0,.65.3h7.06v3.53a2,2,0,0,1-.56.33H27.11Z"/>
                        <path
                              d="M110.14,75.87a6.83,6.83,0,0,1,6.34,3.3A7.32,7.32,0,0,1,114,89.06a8.38,8.38,0,0,1-8.15,0,6.6,6.6,0,0,1-3.3-6.4,6.91,6.91,0,0,1,7-6.83C109.7,75.83,109.92,75.85,110.14,75.87ZM112.78,83a17.45,17.45,0,0,0-.33-1.78A2.43,2.43,0,0,0,110,79.43a2.48,2.48,0,0,0-2.61,1.78,5.42,5.42,0,0,0,0,3.47,2.68,2.68,0,0,0,5.15,0,12.46,12.46,0,0,0,.26-1.82Z"/>
                        <path
                              d="M124.43,89.53h-4.29c-.53,0-.43-.37-.43-.7V76.27h4.65v1.22l.56-.4a14.16,14.16,0,0,1,3-1.29,3.89,3.89,0,0,1,4.76,2.77,4.63,4.63,0,0,1,.13.83,10.58,10.58,0,0,1,0,1.78v8.31h-4.39V81.71c0-1.82-1.09-2.48-2.77-1.65A1.83,1.83,0,0,0,124.43,82v7.53Z"/>
                        <path
                              d="M63.93,83.92H55a2.22,2.22,0,0,0,1.78,2.5,5.22,5.22,0,0,0,4.09-.65l.89-.57,1.55,2.68-.73.56a9.88,9.88,0,0,1-7.16,1.25,6.6,6.6,0,0,1-5.16-7.77c0-.16.07-.32.12-.48a7.21,7.21,0,0,1,8.44-5.74,7.13,7.13,0,0,1,1.45.43A5,5,0,0,1,62.61,78,9.43,9.43,0,0,1,63.93,83.92Zm-4.19-2.77c0-1.49-.66-2.44-1.91-2.51A2.84,2.84,0,0,0,55,81.15Z"/>
                        <path
                              d="M79.56,76.2h2V72.9a2.82,2.82,0,0,1,0-.82s.2-.37.3-.37H86v4.46h3.63v3.29H85.77v4.69c0,1.65.82,2.18,2.3,1.48l.7-.33c.29,1,.62,2,.89,2.91a1.43,1.43,0,0,1-.33.46,8.28,8.28,0,0,1-5,1,2.94,2.94,0,0,1-2.9-2.94V79.33H79.6Z"/>
                        <path
                              d="M67.85,48.85C68.91,45.32,70,41.93,71,38.5c.82-2.71,1.65-5.41,2.44-8.12a.79.79,0,0,1,.89-.66h4.52l-.33,1.12C76.76,36.62,75,42.35,73.3,48.13a.86.86,0,0,1-1,.73H67.85Z"/>
                        <path
                              d="M77.91,76.76l-1.45,2.9a20.2,20.2,0,0,0-3.3,0,3.31,3.31,0,0,0-2.74,3.78,3.15,3.15,0,0,0,.11.44,3.28,3.28,0,0,0,4,2.42l.27-.07c.53-.16,1-.35,1.55-.56l1.55,2.93v.17a9.12,9.12,0,0,1-8.61.29A6.59,6.59,0,0,1,66,82.17a7.23,7.23,0,0,1,7.89-6.5,7.32,7.32,0,0,1,1.12.2A22.53,22.53,0,0,1,77.91,76.76Z"/>
                        <path d="M47.43,89.53H43.28c-.4,0-.43-.24-.43-.57V70.66c0-1,0-1,1-1h3.62Z"/>
                        <path
                              d="M101.63,76,101,80.52l-1.15-.16a3,3,0,0,0-2.61.82,2.2,2.2,0,0,0-.56,1.19v7.16H92.36a1.91,1.91,0,0,1-.26-.66V76.27h4.65v1.48h0A3.92,3.92,0,0,1,101.63,76Z"/>
                        <path
                              d="M140.06,116.9H15.67A15.67,15.67,0,0,1,0,101.24V15.67A15.68,15.68,0,0,1,15.67,0H140.06a15.68,15.68,0,0,1,15.67,15.67v85.57A15.67,15.67,0,0,1,140.06,116.9ZM15.67,7.13a8.54,8.54,0,0,0-8.54,8.54h0v85.57a8.54,8.54,0,0,0,8.54,8.54H140.06a8.54,8.54,0,0,0,8.54-8.54h0V15.67a8.54,8.54,0,0,0-8.54-8.54H15.67Z"/>
                    </g>
                </g>
            </g>
        </g>
    </g>
</svg>
