<svg xmlns="http://www.w3.org/2000/svg" viewBox="0 0 157.71 118.39">
    <g>
        <g>
            <g>
                <g>
                    <path d="M141.41,118.39H16.58A16.44,16.44,0,0,1,0,102.09V16.44A16.44,16.44,0,0,1,16.44,0H141.28a16.44,16.44,0,0,1,16.43,16.44V102A16.44,16.44,0,0,1,141.41,118.39ZM16.44,6.94a9.91,9.91,0,0,0-9.5,9.5V102a9.91,9.91,0,0,0,9.84,9.85H141.62a9.92,9.92,0,0,0,9.85-9.85V16.44a9.91,9.91,0,0,0-10.06-9.5Z"/>
                    <path d="M22.68,69.35,32.6,47.23a3.81,3.81,0,0,1,3.67-2.43h0a3.76,3.76,0,0,1,3.61,2.43L50.14,69.35a3.29,3.29,0,0,1,0,1.25,3,3,0,0,1-3,3.05,3.17,3.17,0,0,1-3-2.15l-1.6-4.23H30.1l-2,4.72a3.19,3.19,0,0,1-2.91,1.94,2.85,2.85,0,0,1-2.85-2.84V71A3.33,3.33,0,0,1,22.68,69.35ZM40.3,61.8l-4-9.44-4,9.44Z"/>
                    <path d="M53.75,48.55A3.12,3.12,0,0,1,56.5,45.1l.37,0h.69a3.19,3.19,0,0,1,2.85,1.6L68,59,75.6,46.68a2.9,2.9,0,0,1,2.77-1.6h.69a3.06,3.06,0,0,1,3.13,3V70.81a3.06,3.06,0,0,1-3,3.12h-.14a3.12,3.12,0,0,1-3-3.12V56.59l-5.48,8.46a3.1,3.1,0,0,1-2.63,1.6,3,3,0,0,1-2.57-1.6l-5.41-8.32V70.6a3.12,3.12,0,0,1-6.17,0Z"/>
                    <path d="M87.46,70.53v-22a3,3,0,0,1,3-3.12h15.88a2.78,2.78,0,0,1,2.78,2.77v.07A2.72,2.72,0,0,1,106.39,51H93.63V56.8h10.89a2.78,2.78,0,0,1,0,5.55H93.63v6h12.9a2.78,2.78,0,0,1,2.77,2.78,2.7,2.7,0,0,1-2.63,2.77H90.58a3.05,3.05,0,0,1-3.14-3C87.44,70.77,87.45,70.65,87.46,70.53Z"/>
                    <path d="M112.42,68.66l7.7-9.43-7.28-8.81a3.92,3.92,0,0,1-.9-2.36A3,3,0,0,1,114.85,45H115a3.18,3.18,0,0,1,2.91,1.53l6.25,8.25,6.17-8.11A3.45,3.45,0,0,1,133.37,45a2.77,2.77,0,0,1,2.84,2.7v.14a3.7,3.7,0,0,1-1,2.43l-6.93,8.81,7.63,9.43a3.84,3.84,0,0,1,1,2.29,3.05,3.05,0,0,1-3,3.12h-.14a3.55,3.55,0,0,1-2.92-1.52l-6.93-8.74-6.59,8.53a3.52,3.52,0,0,1-3,1.73A2.92,2.92,0,0,1,111.45,71,3.58,3.58,0,0,1,112.42,68.66Z"/>
                </g>
            </g>
        </g>
    </g>
</svg>
