<svg xmlns="http://www.w3.org/2000/svg" viewBox="0 0 15.45 13.68">
    <g id="Calque_2" data-name="Calque 2">
        <g id="Calque_1-2" data-name="Calque 1">
            <path id="_Tracé_transparent_" data-name="&lt;Tracé transparent&gt;"
                  d="M14.43,4.88a2.75,2.75,0,0,0,.13-.81,2.65,2.65,0,0,0-2.65-2.64h-.09a2.64,2.64,0,0,0-4.32,0H7.4a2.62,2.62,0,0,0-1.7.62V0H5.38A2.77,2.77,0,0,0,2.7,2.07l-.77-.78-.23.23a2.78,2.78,0,0,0-.43,3.36H0V5.2a7.71,7.71,0,0,0,3.91,6.72v1.76h7.63V11.92A7.73,7.73,0,0,0,15.45,5.2V4.88Zm-7-2.8h.23l.21,0,.1-.18a2,2,0,0,1,3.43,0l.11.18.21,0h.22a2,2,0,0,1,2,2,2,2,0,0,1-.17.81H11.47l1.21-1.21-.46-.46L10.55,4.88H10V2.12H9.33V4.88H8.77L7.1,3.21l-.46.46L7.85,4.88H5.7V3A2,2,0,0,1,7.4,2.08ZM5.05.68V4.42L3.27,2.63A2.11,2.11,0,0,1,5.05.68ZM2,2.23,4.59,4.88H2.07A2.12,2.12,0,0,1,2,2.23ZM4.56,13v-1h6.33v1Zm6.57-1.63H4.32A7,7,0,0,1,.66,5.53H14.79A7,7,0,0,1,11.13,11.4Z"/>
        </g>
    </g>
</svg>
