<svg xmlns="http://www.w3.org/2000/svg" viewBox="0 0 268.23 116.74">
    <g>
        <g>
            <g>
                <g>
                    <path
                          d="M93,41.7v-.21a11.84,11.84,0,0,1,11.47-12.21c.25,0,.5,0,.74,0a12.25,12.25,0,0,1,8.15,2.64,2,2,0,0,1-1.22,3.63,2.14,2.14,0,0,1-1.27-.41A8.43,8.43,0,0,0,105,33.35a7.85,7.85,0,0,0-7.7,8v.13h0a7.86,7.86,0,0,0,7.57,8.14H105a8.44,8.44,0,0,0,5.86-2,1.8,1.8,0,0,1,1.23-.49,1.91,1.91,0,0,1,1.26,3.38A12.22,12.22,0,0,1,93,41.7Z"/>
                    <path
                          d="M118.2,30.74a2,2,0,0,1,4.08,0v7.62a6.46,6.46,0,0,1,5.53-3.06A6,6,0,0,1,134.12,41a5,5,0,0,1,0,1v9.41a1.94,1.94,0,0,1-1.91,2h-.08a2,2,0,0,1-2-2V43.32c0-2.72-1.38-4.31-3.78-4.31a4.08,4.08,0,0,0-4.09,4.06c0,.11,0,.22,0,.34v8.14a2,2,0,1,1-4.07,0Z"/>
                    <path
                          d="M147,53.71a8.8,8.8,0,0,1-9-8.54c0-.21,0-.42,0-.62h0a8.77,8.77,0,0,1,8.3-9.2h.34a8.16,8.16,0,0,1,8.4,7.88,7.12,7.12,0,0,1,0,.8A1.9,1.9,0,0,1,153.1,46H142a4.93,4.93,0,0,0,5.09,4.48,6.39,6.39,0,0,0,4.08-1.55,1.39,1.39,0,0,1,1-.36,1.58,1.58,0,0,1,1.63,1.54v.08a1.75,1.75,0,0,1-.57,1.27A9.08,9.08,0,0,1,147,53.71Zm-2.73-21L142,30.54a1.42,1.42,0,0,1-.57-1c0-.65,1.35-1.3,2.41-1.3a1.83,1.83,0,0,1,1.63,1l1.91,2.94a1.59,1.59,0,0,1,.28.73c0,.41-.44.69-1,.69A3,3,0,0,1,144.26,32.7ZM151,43.24a4.6,4.6,0,0,0-4.47-4.64A4.78,4.78,0,0,0,142,43.24Z"/>
                    <path
                          d="M176.47,56.8a2,2,0,1,1-4.07,0V50.37a7.06,7.06,0,0,1-6,3.34A8.47,8.47,0,0,1,158.21,45c0-.14,0-.27,0-.4h0a8.43,8.43,0,0,1,7.66-9.14l.49,0a7.23,7.23,0,0,1,6,3.1V37.42a2,2,0,0,1,2-2h0a2,2,0,0,1,2.07,2V56.8ZM162.3,44.59h0a5.25,5.25,0,0,0,4.83,5.64l.22,0a5.33,5.33,0,0,0,5.14-5.53.57.57,0,0,0,0-.13h0a5.28,5.28,0,0,0-4.91-5.65h-.22a5.17,5.17,0,0,0-5.06,5.28c0,.08,0,.17,0,.25Z"/>
                    <path
                          d="M197.2,51.47a2,2,0,0,1-4.07,0v-.9a6.38,6.38,0,0,1-5.5,3.14,6.07,6.07,0,0,1-6.35-5.77,7,7,0,0,1,0-1V37.42a2,2,0,0,1,2-2h0a2,2,0,0,1,2.07,2v8.18c0,2.73,1.35,4.08,3.75,4.08a4.08,4.08,0,0,0,4-4.08V37.42a2,2,0,1,1,4.07,0Z"/>
                    <path
                          d="M210.31,53.71a8.8,8.8,0,0,1-9-8.54c0-.21,0-.42,0-.62h0a8.77,8.77,0,0,1,8.3-9.2h.34a8.16,8.16,0,0,1,8.4,7.88,7.12,7.12,0,0,1,0,.8A1.9,1.9,0,0,1,216.42,46H205.3a4.93,4.93,0,0,0,5.09,4.48,6.39,6.39,0,0,0,4.08-1.55,1.39,1.39,0,0,1,1-.36,1.58,1.58,0,0,1,1.63,1.54v.08a1.75,1.75,0,0,1-.57,1.27A9.08,9.08,0,0,1,210.31,53.71Zm4.07-10.47a4.59,4.59,0,0,0-4.47-4.64,4.82,4.82,0,0,0-4.61,4.64Z"/>
                    <path
                          d="M94,59A2,2,0,0,1,96,57h6.72a11.69,11.69,0,0,1,12.44,10.88c0,.25,0,.51,0,.76h0A11.72,11.72,0,0,1,103.53,80.4c-.27,0-.53,0-.8,0H96.09A2.08,2.08,0,0,1,94,78.3h0Zm8.71,17.59a7.64,7.64,0,0,0,8.13-7.14,6.43,6.43,0,0,0,0-.76h0a7.7,7.7,0,0,0-7.43-8H98.13V76.71Z"/>
                    <path
                          d="M127.77,80.79a8.8,8.8,0,0,1-9-8.54q0-.31,0-.63h0a8.76,8.76,0,0,1,8.21-9.27h.22a8.15,8.15,0,0,1,8.41,7.88,7.67,7.67,0,0,1,0,.83A1.88,1.88,0,0,1,133.72,73h-11a4.94,4.94,0,0,0,5.09,4.48,6.39,6.39,0,0,0,4.08-1.55,1.81,1.81,0,0,1,1.06-.37,1.63,1.63,0,0,1,1.58,1.67h0a1.75,1.75,0,0,1-.53,1.22A9.11,9.11,0,0,1,127.77,80.79Zm4.08-10.47a4.6,4.6,0,0,0-4.52-4.68h-.17a4.81,4.81,0,0,0-4.56,4.68Zm-5.66-10.38a1.66,1.66,0,0,1,.24-.74l1.91-2.93a1.8,1.8,0,0,1,1.59-1c1.1,0,2.4.65,2.4,1.3a1.38,1.38,0,0,1-.57,1l-2.24,2.11a3,3,0,0,1-2.36.9C126.59,60.63,126.19,60.39,126.19,59.94Z"/>
                    <path
                          d="M139,85.79c-1.26,0-2.2-.57-2.2-1.66a1.63,1.63,0,0,1,1.59-1.67h.24c.9,0,1.51-.57,1.51-1.92v-16a2,2,0,0,1,2-2h0a2,2,0,0,1,2,2v16a4.55,4.55,0,0,1-3.85,5.17,4,4,0,0,1-.91,0ZM139.79,58a2.36,2.36,0,0,1,4.64,0h0a2.36,2.36,0,0,1-4.64,0Z"/>
                    <path
                          d="M157.5,80.79a8.84,8.84,0,0,1-9-8.63,4.86,4.86,0,0,1,0-.54h0a8.75,8.75,0,0,1,8.29-9.19h.34a8.4,8.4,0,0,1,8.4,8.38c0,.11,0,.23,0,.34a1.92,1.92,0,0,1-1.91,1.91H152.49a4.93,4.93,0,0,0,5.09,4.48A6.21,6.21,0,0,0,161.65,76a1.86,1.86,0,0,1,1.06-.37,1.68,1.68,0,0,1,1.06,2.9A9.08,9.08,0,0,1,157.5,80.79Zm4.07-10.47a4.64,4.64,0,0,0-4.48-4.68,4.79,4.79,0,0,0-4.6,4.68Z"/>
                    <path
                          d="M185.27,78.55a2,2,0,0,1-2,2h-.05a2,2,0,0,1-2-2v-.94a6.38,6.38,0,0,1-5.5,3.14A6.08,6.08,0,0,1,169.36,75a6.56,6.56,0,0,1,0-.89V64.54a2,2,0,1,1,4.07,0v8.14c0,2.77,1.34,4.32,3.75,4.32a4.07,4.07,0,0,0,4.08-4.06c0-.1,0-.2,0-.3V64.5a2,2,0,1,1,4.07,0Z"/>
                    <path
                          d="M190.32,64.54a2,2,0,0,1,2-2h0a2,2,0,0,1,2,2v.89a6.45,6.45,0,0,1,5.54-3.09,6.06,6.06,0,0,1,6.3,5.82,4.93,4.93,0,0,1,0,.94v9.45a2,2,0,0,1-1.91,2h-.09a2,2,0,0,1-2-2V70.4c0-2.73-1.39-4.31-3.79-4.31a4.06,4.06,0,0,0-4.08,4.06c0,.11,0,.22,0,.33v8.15a2,2,0,0,1-4.07,0Z"/>
                    <path
                          d="M219.11,80.79a8.85,8.85,0,0,1-9.05-8.63c0-.18,0-.36,0-.54h0a8.75,8.75,0,0,1,8.29-9.19h.34a8.4,8.4,0,0,1,8.4,8.38c0,.11,0,.23,0,.34a1.92,1.92,0,0,1-1.91,1.91H214.1a4.93,4.93,0,0,0,5.09,4.48A6.21,6.21,0,0,0,223.26,76a1.86,1.86,0,0,1,1.06-.37,1.68,1.68,0,0,1,1.06,2.9A9.08,9.08,0,0,1,219.11,80.79Zm4.07-10.47a4.64,4.64,0,0,0-4.48-4.68,4.79,4.79,0,0,0-4.6,4.68Z"/>
                    <path
                          d="M231.2,64.54a2,2,0,1,1,4.07,0v1.83c1-2.2,2.69-4.07,4.48-4.07a1.87,1.87,0,0,1,2,1.74,1.5,1.5,0,0,1,0,.3,1.87,1.87,0,0,1-1.59,1.91,6.11,6.11,0,0,0-4.89,6.88v5.42a2,2,0,0,1-4.07,0Z"/>
                    <path
                          d="M68.61,51.67A6.75,6.75,0,0,0,62,58.58c0,.1,0,.2,0,.3a6.76,6.76,0,0,0,6.47,7h.13A6.59,6.59,0,0,0,75,59.15l0-.43a6.64,6.64,0,0,0-6.21-7Z"/>
                    <path
                          d="M80.25,25.2H25.89a4.65,4.65,0,0,0-4.6,4.6V84.17a4.6,4.6,0,0,0,4.6,4.6H80.25a4.56,4.56,0,0,0,4.6-4.52V29.8a4.6,4.6,0,0,0-4.6-4.6ZM53.09,57.25c0,8.84-5,13.27-12.74,13.27A11.64,11.64,0,0,1,27.72,60a11.9,11.9,0,0,1,0-2.46V40.43H33V57.29c0,5.5,2.81,8.43,7.49,8.43s7.41-2.77,7.41-8.14V40.43h5.21Zm16.7,13.27a9.17,9.17,0,0,1-7.58-4.07V76.67H57.08V47.72h5.13v3.71a9,9,0,0,1,7.58-4.07,10.74,10.74,0,0,1,10.46,11c0,.2,0,.41,0,.61a10.71,10.71,0,0,1-9.86,11.5Z"/>
                </g>
            </g>
            <path
                  d="M250.19,116.74H18a18.05,18.05,0,0,1-18-18V18A18.06,18.06,0,0,1,18,0H250.19a18.06,18.06,0,0,1,18,18V98.71A18.06,18.06,0,0,1,250.19,116.74ZM18,7.21A10.84,10.84,0,0,0,7.21,18V98.71A10.84,10.84,0,0,0,18,109.53H250.19A10.83,10.83,0,0,0,261,98.71V18A10.84,10.84,0,0,0,250.19,7.21Z"/>
        </g>
    </g>
</svg>
