<svg xmlns="http://www.w3.org/2000/svg" viewBox="0 0 154.59 116.05">
    <g>
        <g>
            <g>
                <g>
                    <path
                          d="M138.62,116.05H16.25A16.12,16.12,0,0,1,0,100.07v-84A16.11,16.11,0,0,1,16.11,0H138.48a16.11,16.11,0,0,1,16.11,16.11V99.94A16.12,16.12,0,0,1,138.62,116.05ZM16.11,6.8A9.73,9.73,0,0,0,6.8,16.11V99.94a9.73,9.73,0,0,0,9.65,9.65H138.82a9.73,9.73,0,0,0,9.66-9.65V16.11a9.73,9.73,0,0,0-9.86-9.31Z"/>
                    <path
                          d="M42.83,74.24a3.13,3.13,0,0,1-3.2-2.93l-2.38-23H32a3.27,3.27,0,0,1-3.26-3.2A3.33,3.33,0,0,1,32,41.88h8.23a3.18,3.18,0,0,1,3.19,2.92l2.25,22L57,43a3.21,3.21,0,0,1,5.78,2.79L50.17,72.33a3.31,3.31,0,0,1-2.85,1.84H42.83Z"/>
                    <path
                          d="M66.42,74.31h-.68a3.35,3.35,0,0,1-2.52-3.81l5.24-26.17a3.22,3.22,0,0,1,6.32,1.22L69.55,71.72A3.21,3.21,0,0,1,66.42,74.31Z"/>
                    <path
                          d="M85.59,75.12a23.11,23.11,0,0,1-7.27-1.36,3.26,3.26,0,0,1,2.1-6.12,10.55,10.55,0,0,0,8,.34,4.74,4.74,0,0,0,2.45-3.06c0-1.08-1.36-2.92-4.22-4.62C79.81,55.88,77.5,51,80.7,45.68a13.59,13.59,0,0,1,15.43-4.14,3.13,3.13,0,0,1,2.34,3.75l0,.12a3.19,3.19,0,0,1-3.87,2.33l-.07,0c-1.36,0-6.8-1.15-8.3,1.3-.88,1.42-1.15,2.72,3.74,5.77,7.28,4.42,7.89,8.84,6.8,11.83a11.27,11.27,0,0,1-5.57,6.8A12.79,12.79,0,0,1,85.59,75.12Z"/>
                    <path
                          d="M103.13,74.31a3.12,3.12,0,0,1-1.36,0,3.2,3.2,0,0,1-1.51-4.26l0,0,12.44-26.1a3.25,3.25,0,0,1,2.85-2.11h4.76a3.27,3.27,0,0,1,3.13,3l2.11,25.56a3.21,3.21,0,0,1-2.91,3.47h0a3.26,3.26,0,0,1-3.53-2.92l-1.84-22.23L105.92,72.47A3.14,3.14,0,0,1,103.13,74.31Z"/>
                    <path d="M122,66.56H107a3.2,3.2,0,1,1,0-6.39h15a3.2,3.2,0,1,1,0,6.39Z"/>
                </g>
            </g>
        </g>
    </g>
</svg>
