<svg xmlns="http://www.w3.org/2000/svg" viewBox="0 0 157.71 118.39">
    <g>
        <g>
            <g>
                <g>
                    <path
                          d="M141.41,118.39H16.58A16.44,16.44,0,0,1,0,102.09V16.44A16.44,16.44,0,0,1,16.44,0H141.28a16.44,16.44,0,0,1,16.43,16.44V102A16.44,16.44,0,0,1,141.41,118.39ZM16.44,6.94a9.91,9.91,0,0,0-9.5,9.5V102a9.91,9.91,0,0,0,9.84,9.85H141.62a9.92,9.92,0,0,0,9.85-9.85V16.44a9.91,9.91,0,0,0-10.06-9.5Z"/>
                </g>
            </g>
            <path
                d="M82.81,46.4C83.64,57.7,76.49,65.69,68.12,68a19.22,19.22,0,0,1-5.17.74c-6.46,0-12.92,0-19.38,0a20.13,20.13,0,0,1-19.35-15.6,18.53,18.53,0,0,1-.5-4.19c0-2.23,0-4.45,0-6.67a20.11,20.11,0,0,1,15.1-18.6,20.74,20.74,0,0,1,5-.63q9.41,0,18.81,0A20.16,20.16,0,0,1,81.77,36.7,19.87,19.87,0,0,1,82.84,43c0,.7,0,1.39,0,2.14H53.3v1.29c1.61,0,3.24,0,4.86,0H82.81Z"/>
            <path
                d="M83.63,68.62V46.43l.51,0q19.86,0,39.7,0a11.1,11.1,0,0,1,2.61,21.89,12.84,12.84,0,0,1-3,.32H83.63Z"/>
            <path
                d="M83.63,45.09V22.92l.6,0H123.7A11.12,11.12,0,0,1,135,34.43a11,11,0,0,1-8.88,10.43,12.87,12.87,0,0,1-2.63.24q-19.62,0-39.24,0Z"/>
            <path
                d="M84.21,89.07v1.87H82.68V77l.78,0h.84v3.86l.09.07a5.44,5.44,0,0,1,4.94-2.16,6.27,6.27,0,0,1,4.33,10.47A6.39,6.39,0,0,1,84.21,89.07ZM89,80.15a4.85,4.85,0,0,0,0,9.7A4.77,4.77,0,0,0,93.75,85,4.71,4.71,0,0,0,89,80.15Z"/>
            <path
                d="M110.83,85.58H100.14a4.46,4.46,0,0,0,3.17,4.06,4.64,4.64,0,0,0,5.55-2.56h1.61c-.65,2.75-4.06,4.69-7.14,4a6.26,6.26,0,1,1,7.5-5.52Zm-1.67-1.46a4.71,4.71,0,0,0-4.36-4,4.63,4.63,0,0,0-4.63,4Z"/>
            <path
                d="M135.11,85.59H124.36a4.54,4.54,0,0,0,3.31,4.08,4.66,4.66,0,0,0,5.44-2.59h1.56a4.59,4.59,0,0,1-1.56,2.51,6,6,0,0,1-4.7,1.64,6.26,6.26,0,1,1,6.7-5.64Zm-1.68-1.47a4.53,4.53,0,0,0-9,0Z"/>
            <path
                d="M61.75,85.58a4.57,4.57,0,0,0,8.76,1.5h1.61c-.46,2.46-3.84,4.56-6.62,4.13a6.23,6.23,0,0,1-5.34-7.1,6.16,6.16,0,0,1,6.53-5.37,6.27,6.27,0,0,1,5.84,6.82c-1.79,0-3.59,0-5.39,0Zm.11-1.49c.55.11,8.56.09,9,0a4.65,4.65,0,0,0-4.94-3.91A4.6,4.6,0,0,0,61.86,84.09Z"/>
            <path
                d="M37.5,82.72H35.92a3.66,3.66,0,0,1,1.4-2.91,5.08,5.08,0,0,1,2.22-.92,9,9,0,0,1,3.69.07A3.35,3.35,0,0,1,46,82.5c0,1.94,0,3.87,0,5.81,0,.15,0,.3,0,.45,0,.69.29,1,1,.95l.22,0a1.44,1.44,0,0,1,.21,0v1.15a3.2,3.2,0,0,1-1.84,0,1.34,1.34,0,0,1-1-1.16c0-.2,0-.41-.06-.65-.24,0-.32.25-.44.39a4.69,4.69,0,0,1-2.83,1.73,6.82,6.82,0,0,1-3.77-.27,3.27,3.27,0,0,1-1.94-4.25A2.69,2.69,0,0,1,37,85.07a7,7,0,0,1,2.42-.71c1.21-.17,2.42-.3,3.63-.46a3.29,3.29,0,0,0,.7-.19.94.94,0,0,0,.58-.66,2.17,2.17,0,0,0-1.37-2.78,5.82,5.82,0,0,0-3.55,0,2.41,2.41,0,0,0-1.83,2.19C37.53,82.52,37.52,82.61,37.5,82.72Zm6.89,2c-.54.13-1,.27-1.51.35-1,.17-2,.27-3,.46a7.36,7.36,0,0,0-1.86.6,1.89,1.89,0,0,0-.46,3.09,2.4,2.4,0,0,0,1.19.71,4.84,4.84,0,0,0,4.77-1.25,2.71,2.71,0,0,0,.72-1.26A10.24,10.24,0,0,0,44.39,84.67Z"/>
            <path
                d="M111.56,79.06H113c0,.23,0,.45,0,.67,0,1.86,0,3.72,0,5.59a9.05,9.05,0,0,0,.16,1.73,3.57,3.57,0,0,0,7-.1,8.18,8.18,0,0,0,.12-1.4c0-1.94,0-3.87,0-5.81v-.65h1.52c0,.14,0,.29,0,.43,0,2.13,0,4.25,0,6.38a6.79,6.79,0,0,1-.56,2.74,4.28,4.28,0,0,1-3.62,2.6,7.14,7.14,0,0,1-2.91-.17,4.28,4.28,0,0,1-3-3.25,7.62,7.62,0,0,1-.25-1.84c0-2.16,0-4.33,0-6.49C111.52,79.36,111.55,79.24,111.56,79.06Z"/>
            <path
                d="M34.37,82.65c-.48,0-.93,0-1.38,0a.67.67,0,0,1-.37-.27c-.33-.38-.6-.82-1-1.17a3.94,3.94,0,0,0-5.69.35,5.35,5.35,0,0,0,0,6.94,4,4,0,0,0,6.08-.09,1.14,1.14,0,0,0,.15-.17,1.41,1.41,0,0,1,1.71-.8l.44,0a2.61,2.61,0,0,1-.16.43c-.21.36-.41.72-.64,1.06a5.4,5.4,0,0,1-7.45,1.44,5.91,5.91,0,0,1-2.77-4.45,6.28,6.28,0,0,1,2.06-5.76,5.52,5.52,0,0,1,8.91,2.23A2,2,0,0,1,34.37,82.65Z"/>
            <path
                d="M60.61,89.53V90.8s-.07.08-.1.08c-1.2,0-2.41.05-3.61,0a1.89,1.89,0,0,1-2-1.79A8.47,8.47,0,0,1,54.85,88c0-2.29,0-4.59,0-6.88v-.64c-.54-.1-.36-.52-.38-.84s-.1-.63.39-.7V77h1.64V79H60.6v1.41H56.55c0,.19,0,.34,0,.48,0,2.37,0,4.74,0,7.11,0,.15,0,.3,0,.45a1.1,1.1,0,0,0,1.2,1.14c.83,0,1.66,0,2.49,0Z"/>
            <path
                d="M50.23,91H48.64V79h1.52v1.41A5,5,0,0,1,53.62,79v1.39l-.48.09a3.47,3.47,0,0,0-2,1.11,2.75,2.75,0,0,0-.79,1.7c0,.4-.06.79-.06,1.19,0,1.95,0,3.91,0,5.87Z"/>
            <path d="M97.5,91H96.08C96,90.55,95.92,77.7,96,77l.37,0H97.5Z"/>
        </g>
    </g>
</svg>
